<svg width="2329" height="1777" xmlns="http://www.w3.org/2000/svg" xmlns:xlink="http://www.w3.org/1999/xlink" xml:space="preserve" overflow="hidden"><defs><linearGradient x1="697.672" y1="371.059" x2="247.803" y2="1374.12" gradientUnits="userSpaceOnUse" spreadMethod="pad" id="fill0"><stop offset="0" stop-color="#5E17EB"/><stop offset="1" stop-color="#38B6FF"/></linearGradient></defs><g transform="translate(378 -113)"><path d="M62.5001 365.005C62.5001 228.312 173.312 117.5 310.005 117.5L1300 117.5C1436.69 117.5 1547.5 228.312 1547.5 365.005L1547.5 1355C1547.5 1491.69 1436.69 1602.5 1300 1602.5L310.005 1602.5C173.312 1602.5 62.5001 1491.69 62.5001 1355Z" stroke="#FFFFFF" stroke-width="9.16667" stroke-linejoin="round" stroke-miterlimit="10" fill="#FFFFFF" fill-rule="evenodd"/><g><g><g><path d="M628.714 614.289 715.849 664.6 715.849 931.284C788.794 870.653 835.353 779.178 835.353 676.796 835.353 538.06 749.859 419.26 628.831 370.238L628.831 614.289ZM211.213 1087.49C217.78 1092.19 224.582 1097.11 211.213 1087.49L211.213 1087.49ZM797.238 1087.96C771.32 1106.49 784.338 1097.11 797.238 1087.96L797.238 1087.96ZM504.519 1316.77 801.343 1085.03 797.473 1087.85C925.655 996.372 1009.27 846.377 1009.27 676.914 1009.27 441.073 847.432 242.995 628.714 187.641L628.714 67.1988 425.827 0.117275 425.827 438.61 473.089 465.818 473.089 1005.99C457.022 1004.46 441.19 1001.77 425.827 998.014 414.451 995.199 403.193 991.798 392.286 987.928L392.286 434.857 290.022 493.847 290.022 928.352C218.953 867.721 173.919 777.419 173.919 676.679 173.919 542.164 254.253 426.413 369.418 374.812L369.418 190.338C156.328 249.445-0.117275 444.826-0.117275 676.679-0.117275 845.908 83.1483 995.668 210.978 1087.14L207.812 1084.8 504.636 1316.53 504.636 1316.53ZM628.596 983.472C597.166 996.255 563.391 1004.23 527.974 1006.69L527.974 641.262 628.596 614.289 628.596 983.354Z" fill="url(#fill0)" fill-rule="evenodd" transform="matrix(1 0 0 1.0428 299.864 172)"/></g></g></g></g></svg>
